<svg width="30" height="37" viewBox="0 0 30 37" fill="none" xmlns="http://www.w3.org/2000/svg">
<path d="M26.8547 5.40746L26.6521 6.91268L25.3997 16.2007L23.3488 31.4112L22.8353 35.2194C22.7962 35.5101 22.6544 35.7766 22.4362 35.9695C22.218 36.1624 21.9381 36.2687 21.6485 36.2687H7.97193C7.68277 36.2687 7.40333 36.1629 7.1852 35.9706C6.96707 35.7783 6.82497 35.5125 6.78513 35.2224L6.26282 31.4112L4.17726 16.2007L2.9028 6.90596L2.698 5.41044C2.67435 5.23865 2.68735 5.06371 2.73612 4.89743C2.78488 4.73115 2.86829 4.57741 2.9807 4.44656C3.09311 4.31571 3.23191 4.2108 3.38775 4.13892C3.54359 4.06703 3.71283 4.02984 3.88406 4.02985H25.6679C25.8388 4.02992 26.0078 4.06706 26.1635 4.13876C26.3191 4.21047 26.4578 4.31508 26.5702 4.44557C26.6826 4.57606 26.7661 4.72941 26.8152 4.89532C26.8643 5.06122 26.8777 5.23585 26.8547 5.40746Z" fill="#7C3F00"/>
<path d="M24.3173 0H5.23485C4.56931 0 4.02979 0.543273 4.02979 1.21343V2.81642C4.02979 3.48658 4.56931 4.02985 5.23485 4.02985H24.3173C24.9828 4.02985 25.5223 3.48658 25.5223 2.81642V1.21343C25.5223 0.543273 24.9828 0 24.3173 0Z" fill="#EDCAA6"/>
<path opacity="0.1" d="M25.5223 2.2388V3.00729C25.5223 3.27849 25.3954 3.53858 25.1694 3.73034C24.9434 3.92211 24.6369 4.02984 24.3173 4.02984H5.23485C4.91525 4.02984 4.60874 3.92211 4.38275 3.73034C4.15675 3.53858 4.02979 3.27849 4.02979 3.00729V2.24069C11.1778 2.81863 18.3744 2.818 25.5223 2.2388Z" fill="black"/>
<path opacity="0.1" d="M26.7867 4.81343H26.7868C26.7865 4.81251 26.786 4.81165 26.7857 4.81074C26.7541 4.72721 26.7136 4.64747 26.6647 4.57297L26.6646 4.57277C26.6502 4.55079 26.6349 4.52953 26.6191 4.50856C26.6138 4.50155 26.6084 4.49468 26.603 4.48778C26.5571 4.42942 26.506 4.37545 26.4503 4.32654C26.4379 4.31559 26.4254 4.3048 26.4125 4.29437C26.3981 4.2827 26.3835 4.27123 26.3685 4.26023C26.3498 4.24643 26.3305 4.23346 26.3109 4.22076C26.2955 4.21077 26.28 4.20095 26.2641 4.19167C26.2396 4.17728 26.2145 4.16374 26.1888 4.15106C26.1766 4.14507 26.1642 4.13948 26.1518 4.13389C26.1273 4.12288 26.1024 4.11271 26.077 4.1034C26.0668 4.09963 26.0568 4.0955 26.0464 4.09202C26.0113 4.08015 25.9755 4.06993 25.9389 4.06135C25.93 4.05926 25.9208 4.05777 25.9118 4.05588C25.8819 4.04961 25.8516 4.04449 25.8209 4.04053C25.8098 4.03909 25.7988 4.03764 25.7876 4.03651C25.7482 4.03257 25.7085 4.02986 25.668 4.02985L25.6679 4.02985H3.88361C3.71257 4.03042 3.54364 4.068 3.3881 4.14005C3.23255 4.21211 3.094 4.31698 2.9817 4.44766C2.8694 4.57833 2.78595 4.7318 2.73692 4.89778C2.6879 5.06377 2.67443 5.23844 2.69743 5.41012L2.73203 5.66245L2.90232 6.90596L2.90252 6.90598L4.17692 16.2007H4.17681L5.84975 28.4015L6.78492 35.2222C6.8247 35.5123 6.96673 35.778 7.18478 35.9704C7.40284 36.1627 7.68222 36.2687 7.97135 36.2687H8.6204C8.58829 36.1839 8.56568 36.0957 8.55301 36.0058L7.92305 31.4112H23.3488L25.3998 16.2007H5.83757L4.58357 7.05475C11.9298 7.65825 19.3141 7.61072 26.6522 6.91268L26.8548 5.40746C26.8817 5.2068 26.8583 5.00249 26.7867 4.81343Z" fill="black"/>
<path d="M28.7986 6.00728C19.6268 6.95279 10.3732 6.95279 1.2014 6.00728C0.882772 6.00728 0.57719 5.88774 0.351883 5.67495C0.126576 5.46216 0 5.17355 0 4.87262V3.37346C0 3.07253 0.126576 2.78392 0.351883 2.57113C0.57719 2.35834 0.882772 2.2388 1.2014 2.2388C10.366 3.303 19.634 3.303 28.7986 2.2388C29.1172 2.2388 29.4228 2.35834 29.6481 2.57113C29.8734 2.78392 30 3.07253 30 3.37346V4.87262C30 5.17355 29.8734 5.46216 29.6481 5.67495C29.4228 5.88774 29.1172 6.00728 28.7986 6.00728Z" fill="#EDCAA6"/>
<path d="M24.018 30.8955H5.40005C5.23291 30.8955 5.07125 30.8367 4.94414 30.7297C4.81702 30.6227 4.73279 30.4745 4.70659 30.3117L2.6952 17.8159C2.67929 17.717 2.68531 17.6159 2.71284 17.5195C2.74037 17.4232 2.78876 17.3339 2.85468 17.2577C2.92059 17.1816 3.00246 17.1205 3.09465 17.0785C3.18684 17.0366 3.28715 17.0149 3.38866 17.0149H26.1635C26.2656 17.0149 26.3665 17.0369 26.4591 17.0793C26.5518 17.1217 26.6339 17.1835 26.6998 17.2604C26.7657 17.3374 26.8138 17.4276 26.8408 17.5247C26.8677 17.6218 26.8728 17.7236 26.8558 17.8229L24.7103 30.3187C24.6826 30.48 24.5979 30.6264 24.4712 30.732C24.3444 30.8376 24.1839 30.8955 24.018 30.8955Z" fill="#EDCAA6"/>
</svg>
