<svg width="188" height="114" viewBox="0 0 188 114" fill="none" xmlns="http://www.w3.org/2000/svg">
<path d="M94.1283 114C145.972 114 188 110.718 188 106.67C188 102.622 145.972 99.34 94.1283 99.34C42.2843 99.34 0.256531 102.622 0.256531 106.67C0.256531 110.718 42.2843 114 94.1283 114Z" fill="#7C3F00"/>
<path d="M147.525 24.7895H30.9835V106.614H147.525V24.7895Z" fill="#EDCAA6"/>
<path d="M70.0562 56.0095H40.794V107.066H70.0562V56.0095Z" fill="#7C3F00"/>
<path d="M54.0891 59.0724H46.2067V66.4167H54.0891V59.0724Z" fill="#FFF6EE"/>
<path d="M64.6436 59.0724H56.7611V66.4167H64.6436V59.0724Z" fill="#FFF6EE"/>
<path d="M54.0891 69.0874H46.2067V76.6988H54.0891V69.0874Z" fill="#FFF6EE"/>
<path d="M64.6436 69.0874H56.7611V76.6988H64.6436V69.0874Z" fill="#FFF6EE"/>
<path d="M66.335 86.8345C67.3626 86.8345 68.1956 86.0019 68.1956 84.9748C68.1956 83.9478 67.3626 83.1152 66.335 83.1152C65.3074 83.1152 64.4744 83.9478 64.4744 84.9748C64.4744 86.0019 65.3074 86.8345 66.335 86.8345Z" fill="#421F00"/>
<path d="M137.715 51.1628H79.8667V99.683H137.715V51.1628Z" fill="#421F00"/>
<path d="M159.704 40.1943H18.805L28.1994 20.5629L30.3018 16.1674L33.0523 10.4193L35.1547 6.02381L37.592 0.931824H148.603L150.042 6.02381L151.285 10.4193L152.911 16.1674L154.154 20.5629L159.704 40.1943Z" fill="#7C3F00"/>
<path d="M137.715 83.7914H79.8667V84.9748H137.715V83.7914Z" fill="#FFF6EE"/>
<path d="M109.298 51.1628H108.283V61.9827H109.298V51.1628Z" fill="#FFF6EE"/>
<path d="M108.791 63.6733C109.725 63.6733 110.482 62.9164 110.482 61.9827C110.482 61.049 109.725 60.2921 108.791 60.2921C107.856 60.2921 107.099 61.049 107.099 61.9827C107.099 62.9164 107.856 63.6733 108.791 63.6733Z" fill="#FFF6EE"/>
<path d="M151.285 10.4193H33.0523L35.1547 6.02382H150.042L151.285 10.4193Z" fill="#421F00"/>
<path d="M154.154 20.5629H28.1994L30.3018 16.1674H152.911L154.154 20.5629Z" fill="#421F00"/>
<path d="M96.9968 74.4273L96.9382 74.8942L96.5756 77.7752L95.9819 82.4933L95.8332 83.6745C95.8219 83.7647 95.7808 83.8474 95.7177 83.9072C95.6545 83.9671 95.5735 84 95.4896 84H91.5302C91.4464 84 91.3655 83.9672 91.3024 83.9075C91.2392 83.8479 91.1981 83.7655 91.1866 83.6755L91.0354 82.4933L90.4316 77.7752L90.0626 74.8921L90.0033 74.4282C89.9965 74.375 90.0002 74.3207 90.0144 74.2691C90.0285 74.2175 90.0526 74.1698 90.0852 74.1293C90.1177 74.0887 90.1579 74.0561 90.203 74.0338C90.2481 74.0115 90.2971 74 90.3467 74H96.6532C96.7027 74 96.7517 74.0115 96.7967 74.0338C96.8418 74.056 96.8819 74.0885 96.9145 74.129C96.947 74.1694 96.9712 74.217 96.9854 74.2685C96.9996 74.3199 97.0035 74.3741 96.9968 74.4273Z" fill="#7C3F00"/>
<path d="M96.1636 73H90.8364C90.6506 73 90.5 73.1348 90.5 73.3011V73.6989C90.5 73.8652 90.6506 74 90.8364 74H96.1636C96.3494 74 96.5 73.8652 96.5 73.6989V73.3011C96.5 73.1348 96.3494 73 96.1636 73Z" fill="#EDCAA6"/>
<path opacity="0.1" d="M96.9771 74.2431H96.9772C96.9771 74.2428 96.977 74.2425 96.9769 74.2422C96.9677 74.2163 96.956 74.1916 96.9418 74.1685L96.9418 74.1684C96.9376 74.1616 96.9332 74.155 96.9286 74.1485C96.9271 74.1463 96.9255 74.1442 96.924 74.142C96.9107 74.1239 96.8959 74.1072 96.8798 74.092C96.8762 74.0886 96.8725 74.0853 96.8688 74.0821C96.8646 74.0784 96.8604 74.0749 96.8561 74.0715C96.8507 74.0672 96.8451 74.0632 96.8394 74.0592C96.8349 74.0561 96.8305 74.0531 96.8259 74.0502C96.8187 74.0457 96.8115 74.0415 96.8041 74.0376C96.8005 74.0357 96.7969 74.034 96.7933 74.0323C96.7862 74.0289 96.779 74.0257 96.7717 74.0228C96.7687 74.0216 96.7658 74.0204 96.7628 74.0193C96.7527 74.0156 96.7423 74.0124 96.7317 74.0098C96.7291 74.0091 96.7265 74.0087 96.7239 74.0081C96.7152 74.0061 96.7064 74.0045 96.6976 74.0033C96.6943 74.0029 96.6911 74.0024 96.6879 74.0021C96.6765 74.0008 96.665 74 96.6533 74L96.6533 74H90.3466C90.297 74.0002 90.2481 74.0118 90.2031 74.0342C90.1581 74.0565 90.118 74.0891 90.0855 74.1296C90.0529 74.1701 90.0288 74.2177 90.0146 74.2692C90.0004 74.3207 89.9965 74.3749 90.0032 74.4281L90.0132 74.5064L90.0625 74.8921L90.0625 74.8921L90.4315 77.7752H90.4314L90.9158 81.5597L91.1865 83.6754C91.198 83.7654 91.2391 83.8478 91.3023 83.9075C91.3654 83.9671 91.4463 84 91.53 84H91.7179C91.7086 83.9737 91.7021 83.9464 91.6984 83.9185L91.516 82.4933H95.9819L96.5756 77.7752H90.9122L90.5492 74.9383C92.676 75.1255 94.8138 75.1107 96.9382 74.8942L96.9969 74.4273C97.0047 74.3651 96.9979 74.3017 96.9771 74.2431Z" fill="black"/>
<path d="M97.6396 74.7624C94.888 75.0792 92.112 75.0792 89.3604 74.7624C89.2648 74.7624 89.1732 74.7224 89.1056 74.6511C89.038 74.5798 89 74.4831 89 74.3823V73.8801C89 73.7793 89.038 73.6826 89.1056 73.6113C89.1732 73.54 89.2648 73.5 89.3604 73.5C92.1098 73.8565 94.8902 73.8565 97.6396 73.5C97.7352 73.5 97.8268 73.54 97.8944 73.6113C97.962 73.6826 98 73.7793 98 73.8801V74.3823C98 74.4831 97.962 74.5798 97.8944 74.6511C97.8268 74.7224 97.7352 74.7624 97.6396 74.7624Z" fill="#EDCAA6"/>
<path d="M96.1756 83H90.7856C90.7372 83 90.6904 82.9788 90.6536 82.9403C90.6168 82.9017 90.5924 82.8483 90.5848 82.7897L90.0025 78.2885C89.9979 78.2529 89.9996 78.2165 90.0076 78.1818C90.0156 78.1471 90.0296 78.1149 90.0487 78.0875C90.0678 78.06 90.0915 78.038 90.1182 78.0229C90.1448 78.0078 90.1739 78 90.2033 78H96.7967C96.8263 78 96.8555 78.0079 96.8823 78.0232C96.9091 78.0385 96.9329 78.0607 96.952 78.0884C96.9711 78.1162 96.985 78.1486 96.9928 78.1836C97.0006 78.2186 97.0021 78.2553 96.9971 78.291L96.376 82.7922C96.368 82.8503 96.3435 82.9031 96.3068 82.9411C96.2701 82.9791 96.2236 83 96.1756 83Z" fill="#EDCAA6"/>
<path d="M121.816 77.038L121.773 77.3776L121.51 79.4729L121.078 82.9042L120.97 83.7633C120.961 83.8289 120.932 83.889 120.886 83.9325C120.84 83.976 120.781 84 120.72 84H117.84C117.779 84 117.72 83.9761 117.674 83.9327C117.629 83.8894 117.599 83.8294 117.59 83.764L117.48 82.9042L117.041 79.4729L116.773 77.3761L116.73 77.0387C116.725 77 116.727 76.9605 116.738 76.923C116.748 76.8855 116.766 76.8508 116.789 76.8213C116.813 76.7918 116.842 76.7681 116.875 76.7519C116.908 76.7357 116.943 76.7273 116.979 76.7273H121.566C121.602 76.7273 121.638 76.7357 121.67 76.7518C121.703 76.768 121.732 76.7916 121.756 76.821C121.78 76.8505 121.797 76.8851 121.808 76.9225C121.818 76.9599 121.821 76.9993 121.816 77.038Z" fill="#7C3F00"/>
<path d="M121.21 76H117.336C117.2 76 117.091 76.098 117.091 76.219V76.5083C117.091 76.6292 117.2 76.7273 117.336 76.7273H121.21C121.345 76.7273 121.455 76.6292 121.455 76.5083V76.219C121.455 76.098 121.345 76 121.21 76Z" fill="#EDCAA6"/>
<path opacity="0.1" d="M121.802 76.904H121.802C121.802 76.9038 121.801 76.9036 121.801 76.9034C121.795 76.8846 121.786 76.8666 121.776 76.8498L121.776 76.8497C121.773 76.8448 121.77 76.84 121.766 76.8353C121.765 76.8337 121.764 76.8321 121.763 76.8306C121.753 76.8174 121.742 76.8052 121.731 76.7942C121.728 76.7917 121.725 76.7893 121.723 76.7869C121.72 76.7843 121.717 76.7817 121.714 76.7792C121.71 76.7761 121.706 76.7732 121.701 76.7703C121.698 76.7681 121.695 76.7659 121.692 76.7638C121.686 76.7605 121.681 76.7575 121.676 76.7546C121.673 76.7533 121.671 76.752 121.668 76.7507C121.663 76.7483 121.657 76.746 121.652 76.7439C121.65 76.743 121.648 76.7421 121.646 76.7413C121.638 76.7386 121.631 76.7363 121.623 76.7344C121.621 76.7339 121.619 76.7336 121.617 76.7331C121.611 76.7317 121.605 76.7306 121.598 76.7297C121.596 76.7294 121.594 76.729 121.591 76.7288C121.583 76.7279 121.575 76.7273 121.566 76.7273L121.566 76.7273H116.979C116.943 76.7274 116.908 76.7359 116.875 76.7521C116.842 76.7684 116.813 76.792 116.789 76.8215C116.766 76.851 116.748 76.8856 116.738 76.9231C116.728 76.9605 116.725 76.9999 116.73 77.0386L116.737 77.0956L116.773 77.3761L116.773 77.3761L117.041 79.4729H117.041L117.393 82.2252L117.59 83.7639C117.599 83.8294 117.628 83.8893 117.674 83.9327C117.72 83.9761 117.779 84 117.84 84H117.977C117.97 83.9809 117.965 83.961 117.962 83.9407L117.83 82.9042H121.078L121.51 79.4729H117.391L117.127 77.4096C118.673 77.5458 120.228 77.5351 121.773 77.3776L121.816 77.038C121.822 76.9928 121.817 76.9467 121.802 76.904Z" fill="black"/>
<path d="M122.283 77.2818C120.282 77.5121 118.263 77.5121 116.262 77.2818C116.193 77.2818 116.126 77.2527 116.077 77.2008C116.028 77.149 116 77.0787 116 77.0053V76.6401C116 76.5668 116.028 76.4965 116.077 76.4446C116.126 76.3928 116.193 76.3636 116.262 76.3636C118.262 76.6229 120.284 76.6229 122.283 76.3636C122.353 76.3636 122.42 76.3928 122.469 76.4446C122.518 76.4965 122.545 76.5668 122.545 76.6401V77.0053C122.545 77.0787 122.518 77.149 122.469 77.2008C122.42 77.2527 122.353 77.2818 122.283 77.2818Z" fill="#EDCAA6"/>
<path d="M121.219 83.2727H117.299C117.263 83.2727 117.229 83.2573 117.203 83.2293C117.176 83.2012 117.158 83.1624 117.153 83.1198L116.729 79.8462C116.726 79.8203 116.727 79.7938 116.733 79.7685C116.739 79.7433 116.749 79.7199 116.763 79.7C116.777 79.68 116.794 79.664 116.813 79.653C116.833 79.642 116.854 79.6364 116.875 79.6364H121.67C121.692 79.6364 121.713 79.6421 121.733 79.6532C121.752 79.6643 121.769 79.6805 121.783 79.7007C121.797 79.7208 121.807 79.7445 121.813 79.7699C121.819 79.7953 121.82 79.822 121.816 79.848L121.364 83.1216C121.359 83.1639 121.341 83.2022 121.314 83.2299C121.287 83.2575 121.254 83.2727 121.219 83.2727Z" fill="#EDCAA6"/>
</svg>
