<svg width="57" height="69" viewBox="0 0 57 69" fill="none" xmlns="http://www.w3.org/2000/svg">
<path d="M51.024 10.2742L50.6391 13.1341L48.2596 30.7814L44.3628 59.6813L43.3872 66.9169C43.3129 67.4692 43.0435 67.9756 42.6289 68.3421C42.2143 68.7087 41.6826 68.9106 41.1323 68.9105H15.1468C14.5974 68.9106 14.0664 68.7095 13.652 68.3441C13.2375 67.9787 12.9675 67.4738 12.8918 66.9226L11.8995 59.6813L7.9369 30.7814L5.51541 13.1214L5.12629 10.2799C5.08136 9.95346 5.10606 9.62107 5.19872 9.30515C5.29138 8.98922 5.44984 8.6971 5.66342 8.44849C5.87701 8.19988 6.14074 8.00056 6.43682 7.86398C6.73291 7.72739 7.05448 7.65673 7.37982 7.65674H48.7691C49.0939 7.65688 49.415 7.72744 49.7107 7.86368C50.0064 7.99992 50.2698 8.19868 50.4834 8.44661C50.697 8.69454 50.8558 8.98591 50.949 9.30113C51.0422 9.61635 51.0678 9.94814 51.024 10.2742Z" fill="#7C3F00"/>
<path d="M42.8917 66.8501L42.8917 66.8502C42.8332 67.2844 42.6216 67.6812 42.2977 67.9675C41.9739 68.2538 41.5599 68.4106 41.1324 68.4105H41.1323H15.1468H15.1466C14.7198 68.4106 14.3063 68.2543 13.9826 67.969C13.6589 67.6836 13.4468 67.288 13.3872 66.8547C13.3872 66.8546 13.3872 66.8546 13.3872 66.8545L12.3948 59.6134L12.3948 59.6134L8.43226 30.7135L6.01079 13.0535L6.01078 13.0534L5.62167 10.212L5.62162 10.2117C5.58631 9.95517 5.60574 9.69398 5.67851 9.44587C5.75127 9.19777 5.87559 8.96882 6.04269 8.77432C6.20976 8.57984 6.41567 8.42437 6.64626 8.318C6.87683 8.21164 7.12695 8.15673 7.3798 8.15674H7.37982H48.7691C49.0215 8.15687 49.2712 8.21171 49.5014 8.3178C49.7318 8.42391 49.9375 8.57897 50.1046 8.77296C50.2717 8.96696 50.3963 9.19535 50.4695 9.44294L50.949 9.30113L50.4695 9.44294C50.5428 9.69051 50.5629 9.95124 50.5284 10.2075C50.5284 10.2075 50.5284 10.2076 50.5284 10.2076L50.1435 13.0673L50.1435 13.0674L47.764 30.7146L43.8673 59.6145L42.8917 66.8501Z" stroke="white" stroke-opacity="0.11"/>
<path d="M46.2029 0H9.94636C8.68184 0 7.65674 1.03222 7.65674 2.30552V5.35119C7.65674 6.6245 8.68184 7.65672 9.94636 7.65672H46.2029C47.4675 7.65672 48.4926 6.6245 48.4926 5.35119V2.30552C48.4926 1.03222 47.4675 0 46.2029 0Z" fill="#EDCAA6"/>
<path d="M9.94636 0.5H46.2029C47.1881 0.5 47.9926 1.30509 47.9926 2.30552V5.35119C47.9926 6.35162 47.1881 7.15672 46.2029 7.15672H9.94636C8.96124 7.15672 8.15674 6.35162 8.15674 5.35119V2.30552C8.15674 1.30509 8.96124 0.5 9.94636 0.5Z" stroke="white" stroke-opacity="0.11"/>
<g opacity="0.1">
<path d="M48.4926 4.25391V5.71403C48.4926 6.22931 48.2513 6.72348 47.8219 7.08783C47.3926 7.45219 46.8102 7.65688 46.2029 7.65689H9.94636C9.33912 7.65688 8.75675 7.45219 8.32736 7.08783C7.89798 6.72348 7.65675 6.22931 7.65674 5.71403V4.25749C21.238 5.35558 34.9116 5.35438 48.4926 4.25391Z" fill="black"/>
<path d="M8.15674 5.71403V4.79897C21.407 5.84172 34.7426 5.84055 47.9926 4.79548V5.71403C47.9926 6.06772 47.8276 6.42725 47.4984 6.70659C47.1668 6.98804 46.7017 7.15689 46.2029 7.15689H9.94637C9.94637 7.15689 9.94636 7.15689 9.94636 7.15689C9.44761 7.15688 8.98255 6.98804 8.65087 6.70659C8.32167 6.42726 8.15675 6.06772 8.15674 5.71403C8.15674 5.71403 8.15674 5.71403 8.15674 5.71403Z" stroke="white" stroke-opacity="0.11"/>
</g>
<g opacity="0.1">
<path d="M50.8947 9.14554H50.895C50.8944 9.1438 50.8935 9.14216 50.8929 9.14043C50.833 8.98173 50.7559 8.83023 50.6631 8.68868L50.6629 8.6883C50.6354 8.64654 50.6064 8.60613 50.5764 8.56629C50.5664 8.55297 50.5561 8.53992 50.5458 8.52681C50.4585 8.41593 50.3614 8.31338 50.2557 8.22045C50.2321 8.19966 50.2083 8.17916 50.1839 8.15934C50.1564 8.13716 50.1288 8.11537 50.1003 8.09446C50.0647 8.06825 50.028 8.04361 49.9908 8.01947C49.9615 8.00048 49.9321 7.98184 49.9019 7.9642C49.8552 7.93686 49.8076 7.91114 49.7589 7.88705C49.7357 7.87565 49.7121 7.86505 49.6884 7.85443C49.6419 7.8335 49.5946 7.81419 49.5464 7.79649C49.527 7.78933 49.5079 7.78149 49.4883 7.77486C49.4216 7.75232 49.3535 7.7329 49.2841 7.7166C49.2671 7.71262 49.2497 7.70979 49.2326 7.7062C49.1758 7.69429 49.1182 7.68457 49.0599 7.67703C49.0388 7.67431 49.0178 7.67154 48.9965 7.66941C48.9217 7.6619 48.8463 7.65676 48.7693 7.65675L48.7692 7.65674H7.37895C7.05399 7.65784 6.73301 7.72923 6.43748 7.86613C6.14195 8.00304 5.87869 8.20229 5.66532 8.45058C5.45196 8.69886 5.29339 8.99045 5.20025 9.30582C5.1071 9.62119 5.08152 9.95307 5.12522 10.2793L5.19095 10.7587L5.5145 13.1214L5.51489 13.1214L7.93624 30.7814H7.93604L11.1146 53.9629L12.8915 66.9222C12.967 67.4734 13.2369 67.9783 13.6512 68.3437C14.0655 68.7092 14.5963 68.9105 15.1457 68.9105H16.3789C16.3178 68.7494 16.2749 68.5818 16.2508 68.411L15.0539 59.6813H44.3628L48.2597 30.7814H11.0915L8.70889 13.4041C22.6668 14.5507 36.6969 14.4604 50.6392 13.1341L51.0242 10.2742C51.0754 9.89294 51.0309 9.50475 50.8947 9.14554Z" fill="black"/>
<path d="M49.9908 8.01947C49.9615 8.00048 49.9321 7.98184 49.9019 7.9642C49.8552 7.93686 49.8076 7.91114 49.7589 7.88705M49.9908 8.01947L49.7184 8.43873M49.9908 8.01947L49.719 8.43909C49.7188 8.43897 49.7186 8.43885 49.7184 8.43873M49.9908 8.01947L49.7184 8.43873M49.7184 8.43873C49.6916 8.42134 49.6699 8.40773 49.6498 8.39601L49.6492 8.39561C49.6129 8.37439 49.5759 8.3544 49.538 8.33563M49.538 8.33563C49.5383 8.33574 49.5385 8.33584 49.5387 8.33595L49.7589 7.88705M49.538 8.33563C49.5377 8.33548 49.5374 8.33533 49.5371 8.33518L49.7589 7.88705M49.538 8.33563C49.5237 8.32864 49.5077 8.32137 49.4838 8.31064L49.4833 8.31041C49.4476 8.29436 49.4112 8.27949 49.374 8.26582L49.3735 8.26565L49.3532 8.25799L49.3453 8.25498L49.339 8.25255L49.3308 8.24948C49.329 8.24883 49.3284 8.24863 49.3286 8.24869L49.3282 8.24854C49.2771 8.23127 49.2247 8.21629 49.1709 8.20362M49.7589 7.88705C49.7357 7.87565 49.7121 7.86505 49.6884 7.85443M49.6884 7.85443C49.6419 7.8335 49.5946 7.81419 49.5464 7.79649C49.5393 7.79388 49.5323 7.79118 49.5253 7.78848C49.513 7.78378 49.5008 7.77907 49.4883 7.77486C49.4216 7.75232 49.3535 7.7329 49.2841 7.7166M49.6884 7.85443L49.6884 7.85444L49.6884 7.85443ZM49.1709 8.20362C49.1714 8.20372 49.171 8.20364 49.1701 8.20343L49.2841 7.7166M49.1709 8.20362C49.1703 8.2035 49.1683 8.2031 49.1642 8.2023L49.1506 8.19969L49.1299 8.19554C49.0861 8.18636 49.0414 8.1788 48.9958 8.17292L48.9937 8.17264C48.9714 8.16976 48.9589 8.16815 48.9467 8.16693L48.9465 8.16691C48.8821 8.16044 48.8242 8.15675 48.7693 8.15675L48.7564 8.15675L48.7563 8.15674H7.37985C7.12734 8.15771 6.87774 8.21322 6.64765 8.31982C6.41729 8.42653 6.21158 8.58208 6.04453 8.77646C5.87747 8.97086 5.75298 9.19958 5.67977 9.44744C5.60663 9.69509 5.58646 9.95583 5.62069 10.2122C5.62072 10.2124 5.62076 10.2126 5.62079 10.2129L5.68631 10.6908L5.68633 10.6908L5.95578 12.6585L5.95611 12.6585L6.01026 13.0535L8.4316 30.7135L8.50947 31.2814H8.50928L11.61 53.8949L13.3868 66.8543C13.4462 67.2876 13.6582 67.6833 13.9819 67.9688C14.3055 68.2541 14.7189 68.4105 15.1457 68.4105H15.7461L14.5585 59.7492L14.4807 59.1813H15.0539H43.9257L47.6877 31.2814M49.1709 8.20362C49.1705 8.20353 49.1702 8.20344 49.1698 8.20336L49.2841 7.7166M49.2841 7.7166C49.2739 7.71421 49.2635 7.71224 49.2532 7.71026C49.2463 7.70895 49.2394 7.70764 49.2326 7.7062C49.1758 7.69429 49.1182 7.68457 49.0599 7.67703L49.0549 7.67639C49.0354 7.67387 49.0161 7.67137 48.9965 7.66941L47.6877 31.2814M47.6877 31.2814H11.0915H10.6554L10.5961 30.8494L8.21352 13.472L8.12889 12.8547L8.74982 12.9057C22.5465 14.0391 36.4138 13.9614 50.1967 12.6736L50.5286 10.2076C50.5286 10.2076 50.5286 10.2075 50.5286 10.2075C50.5688 9.90848 50.5338 9.60412 50.4272 9.32274L50.4188 9.30051C50.3727 9.18197 50.3144 9.06877 50.245 8.9628C50.225 8.93236 50.2026 8.901 50.1771 8.86722L50.1767 8.86663C50.1714 8.8596 50.166 8.85275 50.1566 8.84074L50.1529 8.83603L47.6877 31.2814ZM48.7692 7.65674H7.37895C7.05399 7.65784 6.73301 7.72923 6.43748 7.86613C6.14195 8.00304 5.87869 8.20229 5.66532 8.45058C5.45196 8.69886 5.29339 8.99045 5.20025 9.30582L48.7692 7.65674ZM50.4339 9.33879L50.4356 9.3429L50.4362 9.34418L50.4364 9.34453L50.4364 9.34462C50.4362 9.34405 50.4351 9.34165 50.4339 9.33879Z" stroke="white" stroke-opacity="0.11"/>
</g>
<path d="M54.7173 11.414C37.2909 13.2105 19.7091 13.2105 2.28267 11.414C1.67727 11.414 1.09666 11.1869 0.668577 10.7826C0.240494 10.3783 0 9.82993 0 9.25816V6.40976C0 5.83799 0.240494 5.28964 0.668577 4.88534C1.09666 4.48104 1.67727 4.25391 2.28267 4.25391C19.6953 6.27589 37.3047 6.27589 54.7173 4.25391C55.3227 4.25391 55.9033 4.48104 56.3314 4.88534C56.7595 5.28964 57 5.83799 57 6.40976V9.25816C57 9.82993 56.7595 10.3783 56.3314 10.7826C55.9033 11.1869 55.3227 11.414 54.7173 11.414Z" fill="#EDCAA6"/>
<path d="M54.7173 10.914H54.6916L54.6661 10.9167C37.2737 12.7096 19.7263 12.7096 2.33394 10.9167L2.30837 10.914H2.28267C1.80095 10.914 1.3443 10.733 1.01189 10.4191C0.68045 10.1061 0.5 9.6878 0.5 9.25816V6.40976C0.5 5.98012 0.68045 5.56187 1.01189 5.24885C1.33802 4.94083 1.78375 4.76079 2.25542 4.7541C19.6863 6.77583 37.3137 6.77583 54.7446 4.7541C55.2162 4.76079 55.662 4.94083 55.9881 5.24885C56.3195 5.56188 56.5 5.98012 56.5 6.40976V9.25816C56.5 9.6878 56.3195 10.1061 55.9881 10.4191C55.6557 10.733 55.1991 10.914 54.7173 10.914Z" stroke="white" stroke-opacity="0.11"/>
<path d="M45.6343 58.7022H10.2602C9.94262 58.7022 9.63547 58.5905 9.39396 58.3872C9.15244 58.1838 8.99241 57.9022 8.94262 57.5929L5.12099 33.8509C5.09075 33.663 5.10218 33.4709 5.15449 33.2879C5.2068 33.1048 5.29874 32.9351 5.42398 32.7904C5.54922 32.6458 5.70478 32.5296 5.87993 32.45C6.05509 32.3703 6.24568 32.3291 6.43856 32.3291H49.7107C49.9048 32.3291 50.0965 32.3708 50.2725 32.4514C50.4485 32.532 50.6045 32.6494 50.7298 32.7956C50.855 32.9418 50.9464 33.1131 50.9976 33.2977C51.0487 33.4822 51.0585 33.6756 51.0261 33.8643L46.9497 57.6063C46.897 57.9128 46.7361 58.191 46.4953 58.3916C46.2545 58.5922 45.9495 58.7022 45.6343 58.7022Z" fill="#EDCAA6"/>
<path d="M45.6343 58.2022H10.2602C10.0597 58.2022 9.86678 58.1317 9.71599 58.0047C9.56535 57.8779 9.46684 57.7034 9.43627 57.5135L5.61463 33.7714C5.59605 33.656 5.60306 33.5379 5.63525 33.4252C5.66745 33.3126 5.72418 33.2076 5.80199 33.1177C5.87981 33.0278 5.97692 32.9552 6.0869 32.9051C6.1969 32.8551 6.3169 32.8291 6.43856 32.8291H49.7107C49.8331 32.8291 49.9538 32.8554 50.0643 32.906C50.1748 32.9566 50.2723 33.0301 50.3501 33.1209C50.4278 33.2117 50.4842 33.3177 50.5157 33.4313C50.5472 33.5448 50.5532 33.6637 50.5333 33.7796L51.0261 33.8643L50.5333 33.7796L46.4569 57.5217C46.4245 57.7099 46.3254 57.8823 46.1752 58.0074C46.0249 58.1327 45.8333 58.2022 45.6343 58.2022Z" stroke="white" stroke-opacity="0.11"/>
</svg>
