<svg width="41" height="41" viewBox="0 0 41 41" fill="none" xmlns="http://www.w3.org/2000/svg">
<path d="M14.5161 40.2852C13.085 40.1175 11.9702 40.0699 10.8992 39.826C10.4228 39.7174 9.8625 39.3001 9.64907 38.8695C9.34607 38.2579 9.71195 37.6596 10.2551 37.2252C13.1631 34.9044 15.6881 32.2274 17.7786 29.1406C19.669 26.3492 21.0735 23.3292 22.1502 20.1434C24.4408 13.3602 28.6352 8.00612 34.4513 3.88859C35.5184 3.13406 36.2159 3.2198 37.1306 4.13438C40.5837 7.59265 41.3974 11.8302 40.637 16.4584C39.7566 21.8125 36.9648 26.2235 33.4565 30.2134C29.588 34.611 25.0316 38.0216 19.2384 39.4621C17.5938 39.8736 15.8901 40.0528 14.5161 40.2852Z" fill="#7C3F00"/>
<path d="M27.2116 0C27.8042 0.0666884 28.8752 0.154336 29.9328 0.316294C30.5293 0.407752 31.1182 0.615439 31.2782 1.32805C31.4364 2.03114 31.1391 2.55131 30.6036 2.97811C28.1225 4.95971 25.9176 7.20806 24.0177 9.75365C21.6909 12.869 19.9834 16.3044 18.7523 19.9818C16.4636 26.8087 12.2483 32.1781 6.40744 36.3166C5.36313 37.0578 4.67519 36.9511 3.73379 36.0232C0.726655 33.0546 -0.268101 29.3734 0.0596734 25.2901C0.515127 19.5969 3.2993 14.9439 6.82668 10.6587C9.44316 7.48244 12.5227 4.82633 16.1377 2.85807C19.425 1.06892 22.9543 0.0438238 27.2116 0Z" fill="#7C3F00"/>
</svg>
