<svg enable-background="new 0 0 408.582 408.582" viewBox="0 0 408.582 408.582" xmlns="http://www.w3.org/2000/svg"><path d="m243.475 132.729c-9.233 0-16.718 7.485-16.718 16.718s7.485 16.718 16.718 16.718c9.118-.272 16.446-7.6 16.718-16.718 0-9.233-7.485-16.718-16.718-16.718z"/><path d="m165.107 87.798c9.233.004 16.722-7.478 16.726-16.711s-7.478-16.722-16.711-16.726c-.005 0-.01 0-.015 0-9.233.004-16.715 7.492-16.711 16.726.004 9.228 7.484 16.707 16.711 16.711z"/><path d="m331.768.027h-254.955c-12.508-.598-23.193 8.926-24.032 21.42v379.82l35.526-31.869c2.549-2.381 5.916-3.691 9.404-3.657 3.232-.004 6.368 1.103 8.882 3.135l44.408 39.706 44.408-39.706c5.183-4.717 13.103-4.717 18.286 0l43.886 39.706 44.408-39.706c5.22-4.836 13.35-4.604 18.286.522l35.527 31.869v-379.82c-.84-12.494-11.526-22.018-24.034-21.42zm-64.261 47.02c2.614 3.385 2.614 8.108 0 11.494l-111.804 111.282c-1.501 1.588-3.563 2.526-5.747 2.612-2.029-.107-3.921-1.054-5.225-2.612-3.03-2.672-3.32-7.294-.648-10.324.202-.229.419-.446.648-.648l111.282-111.804c3.386-2.614 8.109-2.614 11.494 0zm8.359 102.4c0 17.89-14.502 32.392-32.392 32.392s-32.392-14.502-32.392-32.392 14.502-32.392 32.392-32.392 32.392 14.502 32.392 32.392zm-110.759-110.759c17.889 0 32.392 14.502 32.392 32.392 0 17.889-14.502 32.392-32.392 32.392s-32.392-14.502-32.392-32.392 14.503-32.392 32.392-32.392zm-55.379 180.767h96.653c4.328 0 7.837 3.509 7.837 7.837s-3.509 7.837-7.837 7.837h-96.653c-4.328 0-7.837-3.509-7.837-7.837s3.509-7.837 7.837-7.837zm189.126 109.714h-189.126c-4.328 0-7.837-3.509-7.837-7.837s3.509-7.837 7.837-7.837h189.127c4.328 0 7.837 3.509 7.837 7.837s-3.51 7.837-7.838 7.837zm0-47.02h-189.126c-4.328 0-7.837-3.509-7.837-7.837s3.509-7.837 7.837-7.837h189.127c4.328 0 7.837 3.509 7.837 7.837-.001 4.328-3.51 7.837-7.838 7.837z"/></svg>