<svg width="107" height="107" viewBox="0 0 107 107" fill="none" xmlns="http://www.w3.org/2000/svg">
<path d="M96.1 22.26C101.29 28.07 104.06 35.07 105.7 42.52C111.97 70.91 94.16 99.21 65.72 105.43C32.03 112.79 2.45998 88.47 0.929976 56.12C0.359976 43.99 3.49997 32.73 10.81 23.02C23.12 6.65996 39.69 -0.860035 60.16 1.28997C71.02 2.42997 80.76 6.67996 88.87 14.25C86.25 14.58 84.42 12.83 82.43 11.66C78.93 9.60996 73.98 9.27996 71.63 11.16C71.07 11.6 70.26 12.15 70.59 12.84C71.07 13.84 71.76 12.82 72.3 12.64C73.36 12.28 74.35 12.03 75.33 12.77C73.6 14.02 71.93 15.34 70.64 17.07C70.23 17.62 69.75 17.93 69.05 17.74C68.15 17.5 68.45 16.76 68.45 16.2C68.42 13.78 68.69 11.42 69.71 9.17996C69.95 8.65996 70.57 7.97996 69.99 7.51996C69.27 6.94996 68.66 7.73996 68.21 8.18996C67.59 8.80996 67.11 9.56996 66.64 10.32C64.17 14.2 64.83 18.3 65.62 22.51C65.94 24.25 66.54 24.32 67.73 23.63C72.07 21.08 75.68 17.93 76.63 12.63C77.72 11.83 78.65 12.56 79.62 12.93C86.69 15.62 91.6 20.59 95.07 27.21C100.79 38.12 102.87 49.54 100.21 61.66C99.41 65.3 98.43 68.91 97.32 73.39C99.07 70.95 99.54 69.01 100.07 67.05C103.52 54.23 103.58 41.61 98.43 29.11C97.51 26.91 95.55 24.97 96.1 22.26ZM70.75 33.55C70.38 33.31 70.69 32.18 69.59 32.85C68.12 33.75 66.7 34.57 67.01 36.64C64.47 38.98 60.71 39.83 58.99 43.19C58.88 43.4 58.39 43.42 58.07 43.52C57.97 43.2 57.73 42.85 57.79 42.57C59.36 35.95 55.51 30.04 55.5 23.08C54.7 24.22 54.21 24.92 53.72 25.62C53.1 25.32 52.93 24.76 52.71 24.15C49.55 15.6 43.98 14.37 36.66 16.45C20.47 21.05 5.95997 38.63 6.54997 57.12C7.02997 72.08 12.8 84.48 24.12 94.16C30.38 99.51 37.73 103.15 45.93 104.35C49.11 104.82 52.56 105.59 55.91 104.11C42.32 103.82 31.1 98.59 22.13 88.57C23.39 89.12 24.4 90.2 25.64 90.72C28.55 91.92 30.5 95.43 34.34 94.39C34.48 95.27 35.03 95.23 35.68 94.98C35.43 95.73 35.07 96.25 36.3 96.78C44.24 100.19 52.35 102.11 61.11 101.11C74.48 99.59 84.55 93.12 90.94 81.37C95.64 72.73 97.16 63.35 95.47 53.59C94.14 45.9 91.06 39.01 85.2 33.62C80.84 29.62 76.62 28.78 73.03 31.11C72.67 31.14 72.32 31.17 71.96 31.19C71.74 31.4 71.52 31.61 71.31 31.81C71.37 32.48 71.22 33.07 70.75 33.55ZM9.11998 36.68C9.47998 35.91 9.78998 35.12 10.2 34.38C13.37 28.64 16.75 23.05 21.63 18.55C28.31 12.4 36.28 8.73996 45.1 6.95996C49.03 6.15996 53.01 6.14996 56.77 8.15996C58.43 9.04996 58.69 10.07 57.85 11.6C57.59 12.07 56.62 12.44 57.45 13.08C58.16 13.63 58.74 13.09 59.28 12.56C60.21 11.66 61.07 10.7 60.61 9.30997C59.93 7.22997 58.34 5.87996 56.38 5.18996C50.82 3.22996 45.07 3.55996 39.68 5.34996C24.19 10.48 13.95 21.04 9.11998 36.68ZM63.62 14.11C62.6 14.96 62.26 15.2 61.96 15.5C57.4 19.97 58.17 25.25 59.61 30.67C61.34 37.18 61.35 37.24 66.81 33.5C71.26 30.45 75.15 26.94 75.13 19.97C72.71 25.12 67.18 25.9 64.96 30.23C64.73 30.67 64.18 30.77 63.82 30.4C63.56 30.12 63.32 29.62 63.38 29.26C64.18 24.48 61.96 19.72 63.62 14.11ZM61.25 104.17C61.47 103.73 61.26 103.34 60.93 103.35C60.17 103.36 59.38 103.45 58.65 103.68C58.27 103.8 58.36 104.29 58.75 104.45C59.63 104.82 60.44 104.36 61.25 104.17ZM94.49 79.21C94.59 79.22 94.68 79.22 94.78 79.23C95.49 77.71 96.19 76.18 96.9 74.66C96.82 74.62 96.74 74.59 96.65 74.55C95.93 76.1 95.21 77.66 94.49 79.21Z" fill="#7C431C"/>
<path d="M96.0999 22.2599C95.5499 24.9699 97.5099 26.9099 98.4099 29.0999C103.57 41.5999 103.51 54.2099 100.05 67.0399C99.5199 68.9999 99.0499 70.9399 97.2999 73.3799C98.4099 68.8999 99.3899 65.2899 100.19 61.6499C102.85 49.5299 100.77 38.1099 95.0499 27.1999C91.5799 20.5799 86.6699 15.5999 79.5999 12.9199C78.6299 12.5499 77.6999 11.8099 76.6099 12.6199L76.5399 12.4699C76.4499 12.2999 76.3699 12.1399 76.2799 11.9699C76.1799 12.0899 76.0899 12.1999 75.9899 12.3199C75.7699 12.4699 75.5399 12.6199 75.3199 12.7699C74.3399 12.0299 73.3499 12.2799 72.2899 12.6399C71.7499 12.8199 71.0699 13.8499 70.5799 12.8399C70.2499 12.1499 71.0699 11.6099 71.6199 11.1599C73.9599 9.27991 78.9199 9.60991 82.4199 11.6599C84.4199 12.8299 86.2399 14.5799 88.8599 14.2499C89.9899 15.6399 91.1899 16.9699 92.7299 17.9399C92.9599 20.0699 93.9799 21.5999 96.0899 22.2899L96.0999 22.2599Z" fill="#965326"/>
<path d="M96.09 22.2799C93.99 21.5899 92.96 20.0699 92.73 17.9299C94.02 19.2499 95.52 20.4099 96.09 22.2799Z" fill="#7C431C"/>
<path d="M34.34 94.39C30.5 95.43 28.55 91.91 25.64 90.72C24.4 90.21 23.39 89.13 22.13 88.57C31.1 98.59 42.32 103.82 55.91 104.11C52.56 105.58 49.11 104.81 45.93 104.35C37.73 103.15 30.38 99.51 24.12 94.16C12.8 84.49 7.02998 72.08 6.54998 57.12C5.95998 38.63 20.47 21.05 36.66 16.45C43.98 14.37 49.55 15.6 52.71 24.15C52.93 24.76 53.1 25.33 53.72 25.62C52.59 27.96 52.03 30.43 52.06 33.03C51.92 33.52 51.83 34 52.32 34.36C52.42 34.81 52.52 35.26 52.63 35.71C52.47 36.17 52.35 36.61 52.91 36.9L52.85 36.79C52.95 37.06 53.06 37.32 53.16 37.59L53.22 37.53C52.75 40.19 52.9 42.84 53.6 45.42C53.93 46.65 54.2 48.04 55.6 48.68C55.86 48.82 56.11 48.97 56.37 49.11C57.46 49.73 56.98 48.5 57.35 48.28C58.63 46.85 60.49 46.38 62.06 45.45C67.64 42.14 72.97 38.64 73.03 31.11C76.63 28.79 80.84 29.62 85.2 33.62C91.07 39.01 94.14 45.89 95.47 53.59C97.16 63.35 95.64 72.73 90.94 81.37C84.55 93.12 74.48 99.59 61.11 101.11C52.36 102.11 44.25 100.18 36.3 96.78C35.07 96.25 35.43 95.73 35.68 94.98L35.66 95C36.14 95.18 36.61 95.35 36.79 94.62L36.72 94.65C37.33 95.09 37.58 94.65 37.83 94.2L37.8 94.21C39.25 94.8 40.69 95.16 42.06 94.01C45.17 94.61 48.26 95.3 51.39 95.79C64.6 97.86 77.24 97.98 86 85.34C88.72 83.4 88.82 79.99 90.46 77.44C90.86 76.81 91.04 76.11 90.23 75.58C90.44 74.37 91.5 73.32 90.98 71.62C90.57 72.27 90.34 72.64 90.1 73.01C83.01 83.69 73.39 89.1 60.3 87.26C59.07 87.09 57.82 86.97 56.59 86.82C50.11 86.03 43.75 85.73 38.39 90.53C37.32 91.49 36.86 90.89 36.94 89.6C37.2 85.46 35.47 81.98 33.19 78.71C30.47 74.81 27.04 71.57 23.64 68.28C20.77 65.5 17.65 62.92 16.01 59.1C12.56 51.06 14.19 43.47 18.12 36C11.74 40.56 6.53998 52.18 9.50998 60.85C11.63 67.02 15.49 71.94 19.9 76.52C23.73 80.49 27.73 84.31 31.51 88.33C33.05 89.99 34.72 91.76 34.34 94.39ZM23.4 38.73C21.5 39.3 20.6 40.33 19.81 41.51C14.26 49.84 17.64 62.01 26.44 67.9C32.22 71.77 37.15 76.8 38 84.36C38.2 86.16 38.79 86.56 40.23 85.41C42.95 83.24 46.26 83.2 49.3 83.72C54.38 84.6 59.46 84.69 64.53 84.54C75.02 84.22 82.24 78.49 84.6 69.12C84.77 68.46 85.4 67.68 84.73 67.31C83.7 66.73 83.46 68.04 83.09 68.56C80.74 71.91 77.6 74.34 74.01 76.09C68.17 78.93 61.86 79.1 55.51 78.68C49.23 78.27 43.5 79.33 39.2 85.05C41.84 76.18 36.78 70.46 31.61 64.73C29.58 62.49 27.67 60.13 25.86 57.7C21.63 52.01 20.15 45.88 23.4 38.73ZM78.67 62.32C73.52 67.86 67.5 69.14 61.02 69.05C54.48 68.96 47.8 68.39 44.12 75.63C43.93 76.01 43.08 76.45 42.87 76.33C42.46 76.07 42.44 75.47 42.66 74.89C43.9 71.57 43.8 68.3 42.03 65.19C40.27 62.09 38.16 59.2 35.79 56.55C32.34 52.7 30.17 48.36 30.01 43.13C29.99 42.64 29.82 41.82 29.56 41.75C28.82 41.55 28.6 42.38 28.33 42.87C26.41 46.41 25.91 50.06 27.56 53.88C29.43 58.2 32.4 61.73 35.43 65.24C38.17 68.41 40.83 71.63 41.61 75.97C41.81 77.12 42.84 78.28 43.99 77.68C50.3 74.4 57.08 74.53 63.9 74.45C71.08 74.36 76.68 69.83 78.67 62.32ZM74.46 51.22C68.2 58.81 69.53 57.68 57.26 60.41C54.14 61.1 51.22 61.97 49.26 64.73C49.08 64.98 48.74 65.12 48.47 65.31C48.33 65.02 48.08 64.73 48.08 64.45C48.15 59 45.2 54.64 42.88 50.05C40.99 46.31 39.18 42.54 39.99 37.74C36.37 43.3 35.99 50.27 38.88 53.79C42.77 58.51 46.81 63.17 46.01 70.46C48.59 67.78 51.22 66.73 54.22 65.95C57.84 65.01 61.59 64.84 65.15 63.66C70.97 61.73 74.62 56.94 74.46 51.22ZM47.41 30.87C45.37 34.42 44.27 37.4 44.95 41.08C45.83 45.89 48.82 49.82 49.95 54.46C50.44 56.46 50.49 58.57 50.74 60.63C52.54 59.5 54.26 58.19 56.17 57.28C59.93 55.49 64.13 54.71 67.55 52.13C70.95 49.57 72.63 45.99 72.2 41.1C68.37 50.31 57.79 49.55 52.25 56.14C55.46 46.86 48.43 39.79 47.41 30.87Z" fill="#965326"/>
<path d="M34.3399 94.39C34.7199 91.76 33.0499 89.99 31.5099 88.35C27.7299 84.33 23.7399 80.51 19.8999 76.54C15.4799 71.96 11.6199 67.04 9.50992 60.87C6.52992 52.2 11.7299 40.58 18.1199 36.02C14.1899 43.49 12.5599 51.07 16.0099 59.12C17.6499 62.94 20.7699 65.52 23.6399 68.3C27.0399 71.58 30.4699 74.83 33.1899 78.73C35.4699 82 37.1999 85.48 36.9399 89.62C36.8599 90.91 37.3199 91.51 38.3899 90.55C43.7499 85.75 50.1099 86.04 56.5899 86.84C57.8299 86.99 59.0699 87.11 60.2999 87.28C73.3999 89.12 83.0099 83.71 90.0999 73.03C90.3399 72.67 90.5699 72.3 90.9799 71.64C91.4899 73.34 90.4399 74.4 90.2299 75.6C89.3499 79.08 87.6099 82.19 85.9999 85.36C77.2399 98 64.5899 97.88 51.3899 95.81C48.2599 95.32 45.1699 94.63 42.0599 94.03C40.6299 93.79 39.1999 93.61 37.7999 94.23L37.8299 94.22C37.4599 94.37 37.0899 94.52 36.7199 94.67C36.7199 94.67 36.7899 94.64 36.7999 94.64C36.4199 94.77 36.0499 94.89 35.6699 95.01L35.6899 94.99C35.0299 95.23 34.4799 95.26 34.3399 94.39Z" fill="#FFF6EE"/>
<path d="M52.07 33.03C52.04 30.43 52.6 27.96 53.73 25.62C54.22 24.92 54.71 24.22 55.51 23.08C55.52 30.03 59.37 35.95 57.8 42.57C57.73 42.85 57.98 43.2 58.08 43.52C58.4 43.41 58.89 43.4 59 43.19C60.72 39.83 64.48 38.98 67.02 36.64C68.61 36.02 69.84 34.98 70.76 33.55C71.24 33.07 71.38 32.48 71.31 31.82C71.53 31.61 71.75 31.41 71.97 31.2C72.33 31.17 72.68 31.14 73.04 31.12C72.98 38.65 67.65 42.14 62.07 45.46C60.49 46.4 58.63 46.86 57.36 48.29C57.03 48.57 56.71 48.84 56.38 49.12C56.12 48.98 55.87 48.83 55.61 48.69C56.55 44.61 54.48 41.16 53.24 37.54L53.18 37.6C53.08 37.33 52.97 37.07 52.87 36.8L52.93 36.91C52.84 36.51 52.75 36.12 52.65 35.72C52.55 35.27 52.45 34.82 52.34 34.37C52.24 33.92 52.15 33.48 52.07 33.03Z" fill="#FFF6EE"/>
<path d="M9.12 36.68C13.95 21.04 24.19 10.48 39.68 5.34C45.07 3.55 50.82 3.22 56.38 5.18C58.34 5.87 59.93 7.22 60.61 9.3C61.06 10.69 60.21 11.65 59.28 12.55C58.74 13.08 58.16 13.62 57.45 13.07C56.62 12.43 57.59 12.06 57.85 11.59C58.69 10.07 58.43 9.04 56.77 8.15C53.01 6.14 49.02 6.16 45.1 6.95C36.29 8.73 28.31 12.39 21.63 18.54C16.75 23.03 13.37 28.63 10.2 34.37C9.79 35.12 9.48 35.91 9.12 36.68Z" fill="#965326"/>
<path d="M63.62 14.11C61.96 19.72 64.19 24.47 63.39 29.27C63.33 29.62 63.57 30.13 63.83 30.41C64.18 30.78 64.74 30.68 64.97 30.24C67.19 25.91 72.72 25.13 75.14 19.98C75.16 26.95 71.27 30.46 66.82 33.51C61.36 37.25 61.35 37.18 59.62 30.68C58.18 25.26 57.41 19.98 61.97 15.51C62.25 15.21 62.6 14.96 63.62 14.11Z" fill="#FFF6EE"/>
<path d="M76.54 12.45L76.61 12.6C75.66 17.9 72.05 21.06 67.71 23.6C66.52 24.3 65.93 24.22 65.6 22.48C64.81 18.27 64.15 14.18 66.62 10.29C67.09 9.54997 67.58 8.77997 68.19 8.15997C68.64 7.70997 69.25 6.91997 69.97 7.48997C70.55 7.95997 69.93 8.62997 69.69 9.14997C68.67 11.39 68.4 13.76 68.43 16.17C68.44 16.73 68.13 17.47 69.03 17.71C69.73 17.9 70.22 17.58 70.62 17.04C71.91 15.31 73.58 13.99 75.31 12.74C75.53 12.59 75.76 12.44 75.98 12.29C76.18 12.35 76.36 12.4 76.54 12.45Z" fill="#FFF6EE"/>
<path d="M70.75 33.5499C69.84 34.9799 68.6 36.0199 67.01 36.6399C66.7 34.5799 68.12 33.7599 69.59 32.8499C70.68 32.1799 70.38 33.3099 70.75 33.5499Z" fill="#965326"/>
<path d="M61.25 104.17C60.44 104.36 59.63 104.82 58.75 104.45C58.36 104.29 58.27 103.8 58.65 103.68C59.38 103.45 60.16 103.36 60.93 103.35C61.26 103.34 61.47 103.73 61.25 104.17Z" fill="#965326"/>
<path d="M94.49 79.2099C95.21 77.6599 95.93 76.0999 96.65 74.5499C96.73 74.5899 96.81 74.6199 96.9 74.6599C96.19 76.1799 95.49 77.7099 94.78 79.2299C94.68 79.2199 94.59 79.2199 94.49 79.2099Z" fill="#965326"/>
<path d="M71.95 31.2C71.73 31.41 71.51 31.61 71.29 31.82C71.52 31.61 71.73 31.41 71.95 31.2Z" fill="#965326"/>
<path d="M76.54 12.45C76.36 12.4 76.17 12.35 75.99 12.3C76.09 12.19 76.18 12.07 76.28 11.96C76.37 12.12 76.45 12.29 76.54 12.45Z" fill="#7C431C"/>
<path d="M23.3999 38.73C20.1499 45.88 21.6299 52.01 25.8599 57.69C27.6699 60.11 29.5799 62.48 31.6099 64.72C36.7799 70.45 41.8299 76.17 39.1999 85.04C43.4999 79.32 49.2299 78.26 55.5099 78.67C61.8599 79.09 68.1699 78.93 74.0099 76.08C77.5999 74.33 80.7499 71.91 83.0899 68.55C83.4499 68.03 83.6899 66.72 84.7299 67.3C85.3999 67.67 84.7599 68.45 84.5999 69.11C82.2399 78.49 75.0099 84.22 64.5299 84.53C59.4599 84.68 54.3799 84.59 49.2999 83.71C46.2699 83.18 42.9499 83.23 40.2299 85.4C38.7899 86.55 38.1999 86.15 37.9999 84.35C37.1499 76.79 32.2199 71.76 26.4399 67.89C17.6399 62 14.2599 49.84 19.8099 41.5C20.5999 40.32 21.4999 39.29 23.3999 38.73Z" fill="#FFF6EE"/>
<path d="M78.67 62.32C76.68 69.82 71.08 74.35 63.89 74.44C57.07 74.52 50.29 74.39 43.98 77.67C42.83 78.27 41.81 77.11 41.6 75.96C40.83 71.62 38.16 68.4 35.42 65.23C32.39 61.72 29.42 58.19 27.55 53.87C25.9 50.05 26.41 46.4 28.32 42.86C28.58 42.37 28.8 41.55 29.55 41.74C29.81 41.81 29.98 42.64 30 43.12C30.16 48.36 32.33 52.7 35.78 56.54C38.16 59.19 40.26 62.08 42.02 65.18C43.79 68.29 43.89 71.56 42.65 74.88C42.43 75.46 42.45 76.06 42.86 76.32C43.07 76.45 43.92 76 44.11 75.62C47.79 68.38 54.48 68.95 61.01 69.04C67.49 69.15 73.51 67.86 78.67 62.32Z" fill="#FFF6EE"/>
<path d="M74.46 51.22C74.62 56.94 70.96 61.73 65.16 63.65C61.6 64.83 57.85 65 54.23 65.94C51.22 66.72 48.6 67.77 46.02 70.45C46.82 63.15 42.78 58.5 38.89 53.78C36 50.27 36.38 43.3 40 37.73C39.18 42.53 41 46.29 42.89 50.04C45.2 54.63 48.16 58.99 48.09 64.44C48.09 64.72 48.34 65.01 48.48 65.3C48.75 65.11 49.09 64.97 49.27 64.72C51.23 61.96 54.15 61.09 57.27 60.4C69.54 57.68 68.2 58.81 74.46 51.22Z" fill="#FFF6EE"/>
<path d="M47.41 30.87C48.43 39.78 55.46 46.85 52.24 56.15C57.77 49.57 68.36 50.32 72.19 41.11C72.62 46 70.94 49.57 67.54 52.14C64.12 54.72 59.92 55.51 56.16 57.29C54.25 58.2 52.53 59.51 50.73 60.64C50.48 58.58 50.43 56.47 49.94 54.47C48.81 49.83 45.82 45.89 44.94 41.09C44.28 37.4 45.38 34.43 47.41 30.87Z" fill="#FFF6EE"/>
<path d="M53.2099 37.5399C54.4499 41.1599 56.5199 44.6099 55.5799 48.6899C54.1799 48.0599 53.9099 46.6599 53.5799 45.4299C52.8999 42.8499 52.7499 40.1999 53.2099 37.5399Z" fill="#7C431C"/>
<path d="M85.99 85.35C87.6 82.18 89.34 79.07 90.22 75.59C91.03 76.12 90.86 76.82 90.45 77.45C88.81 79.99 88.71 83.41 85.99 85.35Z" fill="#7C431C"/>
<path d="M37.79 94.21C39.18 93.6 40.61 93.78 42.05 94.01C40.68 95.17 39.24 94.8 37.79 94.21Z" fill="#7C431C"/>
<path d="M56.36 49.1199C56.69 48.8399 57.01 48.5699 57.34 48.2899C56.96 48.5099 57.44 49.7399 56.36 49.1199Z" fill="#7C431C"/>
<path d="M52.63 35.72C52.72 36.12 52.81 36.51 52.91 36.91C52.36 36.62 52.47 36.18 52.63 35.72Z" fill="#7C431C"/>
<path d="M52.07 33.0299C52.16 33.4699 52.24 33.9199 52.33 34.3599C51.83 33.9999 51.93 33.5199 52.07 33.0299Z" fill="#7C431C"/>
<path d="M36.72 94.65C37.09 94.5 37.46 94.35 37.83 94.2C37.58 94.65 37.33 95.09 36.72 94.65Z" fill="#7C431C"/>
<path d="M35.6599 95C36.0399 94.88 36.4199 94.75 36.7899 94.63C36.6199 95.34 36.1399 95.17 35.6599 95Z" fill="#7C431C"/>
<path d="M52.84 36.7999C52.94 37.0699 53.05 37.3299 53.15 37.5999C53.05 37.3299 52.95 37.0599 52.84 36.7999Z" fill="#7C431C"/>
</svg>
