<svg xmlns="http://www.w3.org/2000/svg" viewBox="0 0 164.41 121.76"><defs><style>.cls-1{fill:#f2a056;}.cls-2{fill:#d99049;}.cls-3{fill:#d1812b;}.cls-4{fill:#b7732c;}</style></defs><g id="Layer_2" data-name="Layer 2"><g id="Layer_1-2" data-name="Layer 1"><path class="cls-1" d="M44.27,8.72c24.9-9.6,49.84-13.23,74.93-.65,0,2.13.56,4.42,2.72,4.81,3.93.71,6.09,3.47,8.76,5.88,2,1.84,2.42,2.85.5,5.13-8.11,9.62-13.84,20.87-20.81,31.28C104.82,63.46,98.46,71,90.45,77.1c-3.74,2.84-7.16,1.92-10.25-1C79,75,78.31,73.3,76.26,73.67c0-.34,0-.68-.06-1,.14-3.31-2.91-5.1-3.8-7.87C65.88,44.65,55.19,26.63,44.27,8.72Z"/><path class="cls-2" d="M76.26,73.67c2-.37,2.76,1.29,3.94,2.41,3.09,2.94,6.51,3.86,10.25,1,8-6.07,14.37-13.64,19.92-21.93,7-10.41,12.7-21.66,20.81-31.28,1.92-2.28,1.52-3.29-.5-5.13-2.67-2.41-4.83-5.17-8.76-5.88-2.16-.39-2.71-2.68-2.72-4.81,6.38,2.89,13,6.2,17.06,11.62,6.05,8.13,13.78,15,18.61,24,2.9,5.43,4.9,10.86,1.84,16.89l-1.56-1.79-.09-.06c0-.71,0-1.41,0-2.11,1.5-4.84.18-10-3.7-12.83,3,8.42-.68,13.45-7.43,17.18-2.27,1.26-4.13,3.25-6.31,4.7-8.85,5.86-16.37,14-27.46,16a9.1,9.1,0,0,0-4.65-4.24c-3.42-1.28-3.8-3.14-1.36-5.75a4,4,0,0,0,3-1.55c7.38-8.39,15.43-16.19,22-25.34,3.37-4.71,7.3-9,9.91-14.76a7.42,7.42,0,0,0-6.46,4.09c-5.28,9.69-13.64,17-20,25.76-2.83,3.91-7.22,6.72-8.4,11.81a5.37,5.37,0,0,0-3.73,1c-2.92,2.2-3.92,6.76-1.56,7.62,3.58,1.3,7.27,3,11.28,1.42a7.27,7.27,0,0,1,1.06,4.75c-3.47-1.09-6.9-2.35-10.43-3.22a22.38,22.38,0,0,0-9.72-.09c-5.47,1-12.35,1.88-17.42-3.1-1.33-1.32-3.12-.91-4.76-.93-4.25-.08-8.61.85-12.62-1.44,0-.28,0-.56,0-.84l1.93-.22c3.73.11,7.41,1.13,11.21.09C71.9,76,73,72.43,76.26,73.67Z"/><path class="cls-2" d="M44.27,8.72C55.19,26.63,65.88,44.65,72.4,64.78c.89,2.77,3.94,4.56,3.8,7.87-3,.44-5.37-.22-7-3.26C65.85,63.06,62.06,57,58.72,50.62a33.79,33.79,0,0,0-6.13-8.13A9.68,9.68,0,0,0,54.8,50c3.39,4.5,5.07,9.87,7.48,14.86.74,1.54,3.17,3.62.64,5.16a6.29,6.29,0,0,1-7.44-.55c-.76-.63-1.44-1.37-2.15-2.08C41.86,55.85,30.56,44.17,20.57,31.24c-2.13,1.45-1.05,3.65-1.38,5.5l-1.89-.06c-.9-5.38,1.7-9.25,5.55-12.46A65.35,65.35,0,0,1,34,16.82c2.39-1.27,5-2.06,5.85-5.39C40.23,9.78,42.4,9,44.27,8.72Zm-.45,19c0-4.22-2-7.55-5.36-11.81.62,5.43,2.37,8.82,6,11.79.46,5.33,4,9.18,7,13.4C51.79,35.36,47.12,32.11,43.82,27.71Z"/><path class="cls-3" d="M3.07,67.1l-.15-.23.18-.22c.14-.06.39-.12.39-.18a3.54,3.54,0,0,0-.13-.71c-.15-.86-.1-1.64.83-2.07,3.62-1.18,1.37-4.13,1.87-6.24a.63.63,0,0,1,.19-.83L7,55.44l-.15.15c1.17-.35,1.26-1.19,1-2.18l-.11.12a6.59,6.59,0,0,0,3.39-6.85h0c1.4,0,2.06-1,2.59-2,1.9-3.72,3.77-2.59,5.81-.09A271,271,0,0,0,38.07,65.29c2.34,2.34,5.51,4.21,6.64,8A49.52,49.52,0,0,0,17.06,88.84c-2.73,3-6,4-9.3,2.36-3.7-1.81-5.65-5.18-5.7-9.75C2,76.6,2.91,71.89,3.07,67.1Z"/><path class="cls-3" d="M163.47,89.56l.42,2.21c-.26.77-.49,1.54-.8,2.29-1.61,4-.43,8.51-2.68,12.52-3.25,5.79-9.12,7.34-13.25,2.49-6-7-10.53-15.18-17.7-21.22-2-1.71.09-2,1.18-2.49a156.49,156.49,0,0,0,20.87-12.27c2.4-1.64,4.33-4.29,7.64-4.41v0A61.68,61.68,0,0,0,163.47,89.56Z"/><path class="cls-4" d="M159.15,68.68c-3.31.12-5.24,2.77-7.64,4.41a156.49,156.49,0,0,1-20.87,12.27c-1.09.51-3.22.78-1.18,2.49,7.17,6,11.73,14.21,17.7,21.22,4.13,4.85,10,3.3,13.25-2.49,2.25-4,1.07-8.51,2.68-12.52.31-.75.54-1.52.8-2.29,1,8,.83,15.87-3.46,23.15-5.47,9.27-11.71,9.06-17.47-.27-5.57-9-11.48-17.92-20-24.64-1.3-1-2.59-2.06-3.88-3.08,2.45-3.71,6.82-4.77,10.1-7.3,8.92-6.88,21-10.33,25-22.66.06-.19.59-.24.9-.35,0,.7,0,1.4,0,2.11-.22.34-.45.69-.66,1.05l.35.24.4-1.23,1.56,1.79C157.54,63.28,159.38,65.67,159.15,68.68Z"/><path class="cls-4" d="M3.07,67.1c-.16,4.79-1.08,9.5-1,14.35,0,4.57,2,7.94,5.7,9.75,3.25,1.6,6.57.63,9.3-2.36A49.52,49.52,0,0,1,44.71,73.3c-1.13-3.8-4.3-5.67-6.64-8A271,271,0,0,1,19.56,44.57c-2-2.5-3.91-3.63-5.81.09-.53,1-1.19,2-2.59,2,1.18-3.86,3.65-6.93,6.13-10l1.9.06c.67,2.86,2.65,4.84,4.48,7,9.92,11.59,21.8,21.17,32.53,31.93l-.06.07c-.12.08-.36.18-.35.22a4.78,4.78,0,0,0,.28.61l.23.28c0,.28,0,.56,0,.84-14.53,4.14-28.62,9.06-40.62,18.87C9.54,101.53,1,95.83.16,86.45A41.66,41.66,0,0,1,3.07,67.1Z"/><path class="cls-3" d="M155.07,56.62c-.31.11-.84.16-.9.35-4,12.33-16,15.78-25,22.66-3.28,2.53-7.65,3.59-10.1,7.3-2.64,0-5.41,2.14-7.89-.48a7.27,7.27,0,0,0-1.06-4.75l0,0c11.09-2,18.61-10.14,27.46-16,2.18-1.45,4-3.44,6.31-4.7,6.75-3.73,10.41-8.76,7.43-17.18C155.25,46.58,156.57,51.78,155.07,56.62Z"/><path class="cls-4" d="M163.47,89.56a61.68,61.68,0,0,1-4.32-20.86C161.87,75.39,162.94,82.42,163.47,89.56Z"/><path class="cls-4" d="M11.17,46.68a6.59,6.59,0,0,1-3.39,6.85A11.44,11.44,0,0,1,11.17,46.68Z"/><path class="cls-4" d="M6.06,57.45c-.5,2.11,1.75,5.06-1.87,6.24A11.25,11.25,0,0,1,6.06,57.45Z"/><path class="cls-4" d="M7.89,53.41c.25,1,.16,1.83-1,2.18C7,54.73,7,53.86,7.89,53.41Z"/><path class="cls-4" d="M3.36,65.76a3.54,3.54,0,0,1,.13.71c0,.06-.25.12-.39.18A.78.78,0,0,1,3.36,65.76Z"/><path class="cls-4" d="M7,55.44l-.78,1.18A.91.91,0,0,1,7,55.44Z"/><path class="cls-3" d="M56.2,75.65C45.47,64.89,33.59,55.31,23.67,43.72c-1.83-2.14-3.81-4.12-4.48-7,.33-1.85-.75-4.05,1.38-5.5,10,12.93,21.29,24.61,32.76,36.13.71.71,1.39,1.45,2.15,2.08a6.29,6.29,0,0,0,7.44.55c2.53-1.54.1-3.62-.64-5.16-2.41-5-4.09-10.36-7.48-14.86a9.68,9.68,0,0,1-2.21-7.49,33.79,33.79,0,0,1,6.13,8.13C62.06,57,65.85,63.06,69.21,69.39c1.62,3,4,3.7,7,3.26,0,.34,0,.68.06,1C73,72.43,71.9,76,69.44,76.7c-3.8,1-7.48,0-11.21-.09Z"/><path class="cls-3" d="M104.16,71.69c1.18-5.09,5.57-7.9,8.4-11.81,6.38-8.8,14.74-16.07,20-25.76A7.42,7.42,0,0,1,139,30c-2.61,5.72-6.54,10-9.91,14.76-6.53,9.15-14.58,17-22,25.34a4,4,0,0,1-3,1.55Z"/><path class="cls-3" d="M110.15,81.7c-4,1.61-7.7-.12-11.28-1.42-2.36-.86-1.36-5.42,1.56-7.62a5.37,5.37,0,0,1,3.73-1h0c-2.44,2.61-2.06,4.47,1.36,5.75a9.1,9.1,0,0,1,4.65,4.24Z"/><path class="cls-4" d="M56.2,75.65l2,1-1.93.22-.23-.28a4.57,4.57,0,0,0,.07-.83Z"/><path class="cls-3" d="M44.5,27.69c2.62,4.42,7.29,7.67,7,13.4C48.53,36.87,45,33,44.5,27.69Z"/><path class="cls-3" d="M43.82,27.71c-3-3-4.74-6.38-5.36-11.81C41.79,20.16,43.87,23.49,43.82,27.71Z"/><path class="cls-3" d="M155.15,58.79l-.4,1.23-.35-.24c.21-.36.44-.71.66-1.05Z"/><path class="cls-3" d="M56.14,75.72a4.57,4.57,0,0,1-.07.83,4.78,4.78,0,0,1-.28-.61S56,75.8,56.14,75.72Z"/></g></g></svg>