<svg xmlns="http://www.w3.org/2000/svg" viewBox="0 0 195.5 153.44"><defs><style>.cls-1{fill:#f6cb7a;}.cls-2{fill:#e28f42;}.cls-3{fill:#9cc652;}.cls-4{fill:#bd742d;}.cls-5{fill:#bd732d;}.cls-6{fill:#9cc753;}.cls-7{fill:#fcc644;}.cls-8{fill:#9dc653;}.cls-9{fill:#93332c;}.cls-10{fill:#93352b;}.cls-11{fill:#f6cb7b;}.cls-12{fill:#ffd99a;}.cls-13{fill:#e3423c;}.cls-14{fill:#e4423c;}.cls-15{fill:#d0e070;}.cls-16{fill:#cfdf70;}.cls-17{fill:#d0df6f;}.cls-18{fill:#9c422b;}.cls-19{fill:#9dc552;}.cls-20{fill:#d0df70;}.cls-21{fill:#95362a;}.cls-22{fill:#96362c;}.cls-23{fill:#eeb86f;}.cls-24{fill:#93332b;}.cls-25{fill:#f3c779;}.cls-26{fill:#9c392a;}.cls-27{fill:#efbd73;}.cls-28{fill:#fddb92;}.cls-29{fill:#f4816a;}.cls-30{fill:#f47f69;}.cls-31{fill:#af4d4a;}.cls-32{fill:#b14e4c;}</style></defs><g id="Layer_2" data-name="Layer 2"><g id="Layer_1-2" data-name="Layer 1"><g id="QwiB8A"><path class="cls-1" d="M17.2,49.3c.41-2.95,2.77-1.74,4.32-1.87,7.58-.61,15.17-1.09,22.76-1.58q26-1.68,51.94-3.33c1.75,2.15,1,4.74,1.21,7.15.59,6.27,2.91,8.41,9.19,8.33,9.87-.13,15.49-5.52,16-15.37a2.79,2.79,0,0,1,.76-2.25l55.92-3.65c.92-.06,2-.63,2.54.69-3.43,5.2-8.5,8.81-13,12.91-10.43,9.48-20.62,19.23-31.25,28.48-5.59,4.87-10.3,10.78-16.92,14.44-5.39,0-9.82-3-14.46-5C82,77.43,57.54,66.91,33.23,56.15,27.92,53.8,22.61,51.43,17.2,49.3Z"/><path class="cls-2" d="M17.2,49.3c4.06-1.69,7,1.47,10.05,2.81,29,12.53,57.82,25.38,86.7,38.12,2.27,1,4.52,2.16,7.1,2.18.91,4.49.31,8.92-.59,13.33-1.5,2.09-3.29.93-4.94.36C85.76,95.85,55.69,86.48,26.05,75.87a52.24,52.24,0,0,1-9.66-4.06c-2.77-1.68-4.83-3.81-2.07-7.2Z"/><path class="cls-3" d="M14.32,64.61c-1.1,5.17,2.5,6.4,6.27,7.8,30.07,11.16,60.67,20.73,91.07,30.92,2.65.89,5.09,3,8.23,2,3.31-3.95,6.9-7.45,12.48-7.73a5.9,5.9,0,0,1,.91,3.75,9.38,9.38,0,0,1-4.66,8A16.65,16.65,0,0,0,118,115.1c-4.1,4.41-11.5,3-14.31-2.65-1.94-3.92-3.63-3-6.7-2.06-5.77,1.74-11.75,2.86-16.77-2.18C78,105.8,77,102.86,76.64,99A24,24,0,0,1,65,100.52c-5.26-.47-9.69-2.52-11.93-7.62-1.13-2.56-2.31-3-4.93-1.81-8.21,3.59-9.31,3.35-15.4-3.06-1.36-1.43-1.93-.42-2.83.11-2.76,1.64-5.56,3-8.91,1.79-2.47-1.71-4.68-3.56-3.37-7.06,1.81-1.79,2.5.52,3.63,1.07S23.42,85,24.4,84c1.22-1.3.45-2.52-.53-3.47C20.22,77,15.46,75.33,11,73.24c-1.43-.67-2.56.46-2.82,2-.31,1.89.41,3.28,2.47,3.57,1.36.19,2.55-.53,3.81-.93,4.31-1.38,4.94-.68,3.94,4.27-1.84,1.85-3.88,3-6.54,1.81a4,4,0,0,1-.49,0C3.59,83.15.25,80.82,0,76c-.25-5.07,3.73-9.27,10.4-10.89A33.69,33.69,0,0,1,14.32,64.61Z"/><path class="cls-4" d="M132.09,97.29q-6.1,4-12.19,8.06c.21-4.33-.52-8.74,1.15-12.94q28.28-25.83,56.58-51.63c1.33-1.22,2.83-2.25,4.26-3.36q-.48,7.95-.95,15.91c1.44,6.26.19,11.25-5.78,14.83-5.69,3.41-10.78,7.77-16.19,11.62-2.29,2.09-5.14,3.35-7.62,5.16-6.45,3.72-11.72,9.22-18.56,12.37Z"/><path class="cls-2" d="M77.06,139.11C58.59,133.2,40.26,126.85,22,120.38c-5.38-1.9-7.68-4.48-5.86-10a35.4,35.4,0,0,0,14-4.45,3,3,0,0,1,2.48,1.34c3.31,7.74,6.29,8.78,16.87,5.92a5.85,5.85,0,0,1,4.87.65c6.16,6.62,7.32,6.92,15.35,3.91,1.63-.41,3.1,1.4,4.76.32.51-1.2.37-2.56,1-3.69s1.45-1.74,2.43-.25a10.18,10.18,0,0,1,.43,5.8,45.3,45.3,0,0,0-.2,14.65C78.31,136.16,78.44,137.82,77.06,139.11Z"/><path class="cls-5" d="M182.14,94.54c-.35,4.64-.83,9.28-1,13.93a4.76,4.76,0,0,1-2.47,4q-28.77,20.22-57.52,40.47c-2.52-3.92-1.54-8-.63-12.11,1.8-4,6.28-5.55,8.62-9.08,2.92-1.82,4.65-4.93,7.39-6.94,2-.63,2.59-2.72,4-4,8.3.08,14.72-3.61,19.84-9.89a7.37,7.37,0,0,1,4.72-2.25,11.66,11.66,0,0,0,9.11-6.65c2.76-2.36,4.2-6,7.42-7.9Z"/><path class="cls-6" d="M123.43,40.38c1.49,5.38.86,10.19-3.66,14C114.31,59,108,60.76,101.16,59c-3.48-.92-4.71-4.58-5.06-8a68.49,68.49,0,0,1,.12-8.47c2.39-4.09,4.83-8.12,9.85-9.47,2.13.79,4-.17,5.9-.86C117.56,32.44,121.1,35.57,123.43,40.38Z"/><path class="cls-7" d="M77.06,139.11c-1.87-8.62-.25-17.27-.17-25.9a2.28,2.28,0,0,1-.48-2c.94-2.22,3-2.89,5-3.61,5.5,4.84,11.42,3.31,17.17.84,2.79-1.2,3.94-1.87,5.23,2a8.44,8.44,0,0,0,15.33,1.95c1.82-2.89,3-4.8,6.59-3.22.6.26,1.58-.35,2.38-.55,1.6.5,3.53.68,3,3.19-5.06,4.09-11.32,6-16.86,9.23-3.13,1.83-6.49,3.28-9.74,4.92a10.89,10.89,0,0,0-5.06,5.23c-4.68,0-8.51,2.24-12.18,4.78a58.67,58.67,0,0,1-7.34,4.2A3.32,3.32,0,0,1,77.06,139.11Z"/><path class="cls-2" d="M80,140.13c4.18-5,10.42-7,15.72-10.4,1.19-.75,2.17,1.19,3.4,1.57.33-.11.77-.22.94,0,3.67,4.31,8.67,5,13.87,5.17,2.81,1.07,5.83,1.7,8.13,3.85-1.77,4.11-.74,8.41-.88,12.63-1.32,1.1-2.49.13-3.69-.27Q98.7,146.42,80,140.13Z"/><path class="cls-8" d="M157.79,79.23c5.58-4.08,11.06-8.29,16.77-12.18,3.59-2.45,6.43-5,5.69-9.87-.18-1.22.44-2.56.7-3.85,1-.19,1.92-.42,2.9-.58,4.31-.72,8.41-.43,10.8,3.84,2.07,3.72.21,8.86-4,12.1l-1.94,1.53c-2.38,2.55-5.53,2.47-8.59,2.37-2.72-.09-4.38.77-4.42,3.73-2.94,6.69-6.15,8.57-13.53,7.93a3.72,3.72,0,0,1-1.25-.76C162.48,80.16,159.36,80.27,157.79,79.23Z"/><path class="cls-9" d="M30.21,106.23c-4.07,3.53-8.41,6.11-14.09,4.11-1.31-1.46-3.72-3.33-2.57-4.93,3.29-4.52-.53-6.35-2.44-9.27-2.66-4-1.45-8.25.74-12.21l6.3-1.68,0,0c-.54,3,1,5.07,3.14,6.84C23.18,95.39,28,100.16,30.21,106.23Z"/><path class="cls-10" d="M174.8,76.14c-1.39-4-.18-5.63,4.18-4.86,3.29.58,6.51-.49,9.74-1.06-.09.48,0,1.07-.29,1.43-2.83,3.93-4.75,7.46-.08,11.84,2.18,2-.26,4.93-2,6.94a55,55,0,0,1-4.24,4.11l-.09-.3c-.24-.24-.55-.53-.5-.8C182.73,86.33,179.93,80.78,174.8,76.14Z"/><path class="cls-11" d="M112,32.19c-1.5,3.48-3.29,5-5.9.86,1.79-7.28.48-14.82,1.91-22.13.71-3.61,1-7.3,2-10.92,1.52,5.11,1,10.31,1.34,15.44C111.69,21,110.46,26.66,112,32.19Z"/><path class="cls-12" d="M105.78,76.59c-12.59-1.25-23-5.89-33.6-10.15A87.52,87.52,0,0,1,57.65,59c-3.85-2.48-3.67-5.76.66-6.6,7.8-1.52,15.47-4.39,23.7-3.2a12.56,12.56,0,0,1,9.48,6.5c3.13,5.75,7.34,9.61,13.68,11.15a5.55,5.55,0,0,1,1.41.46c2.39,1.36,5.53,2.54,4.84,5.93S107.87,77.25,105.78,76.59Z"/><path class="cls-13" d="M30.21,106.23c-4.09-5.12-8.89-9.88-8.89-17.12,4.66,1.15,7.82-1.84,11.17-4.27,3.27,8.55,7.27,9.06,19.85,2.72C55.78,99.09,61.05,101.22,78,97.73c0,3.68.31,7.32,3.47,9.85-.58,2.38-3.26,2.3-4.53,3.85-3.33,3.26-7.76,3.36-11.93,4.23a9.55,9.55,0,0,1-1.69,0c-3.12-.17-6.39.65-9.23-1.39L49.85,114c-6.68-.3-12.91-1.77-17.84-6.7Z"/><path class="cls-14" d="M174.8,76.14c6.9,2.8,9.42,9.06,7.25,18.1-2.34,2.68-3.9,6-7,8.07-2.22,3.34-5.59,5.13-9.25,6.17a23.47,23.47,0,0,0-6.62,3c-7.31,2.66-14.88,2.56-22.46,2-2.08-.15-4.32-.42-5.66-2.48l-2.95-2.45c2.78-1.64,3.66-4.35,4.1-7.3.95-1.11,1.82-2.31,3.36-2.7a10.84,10.84,0,0,1,3.93.23c11.48,1.37,18.84-4,21.49-15.54C167.06,83.71,172.38,82.73,174.8,76.14Z"/><path class="cls-15" d="M18.15,82.25V78.32c-2.39-.54-3.66,1.16-5.33,1.62-2,.54-4.1,1-5.35-1.15a5.41,5.41,0,0,1,.42-6.52c1.71-1.92,3.49-.64,5.29.46,3.53,2.15,7.33,3.88,10.8,6.12,1.55,1,3.49,2.38,2.78,4.8a3.69,3.69,0,0,1-2.86,2.54c-2.38.48-3.69-1-4.79-2.78a11,11,0,0,0-.93-1.14Z"/><path class="cls-16" d="M91.74,100.28a52.37,52.37,0,0,1,16.94,4,6.22,6.22,0,0,1,3.28,2.85c.63,1.15,1.43,2.41,0,3.52a3,3,0,0,1-3.69,0,2.46,2.46,0,0,1-.72-.68c-4.72-6.59-11.14-6.83-18.16-4.9a3.88,3.88,0,0,1-4.4-1.47,2,2,0,0,1-.51-2.28c.92-1.71,2.63-.88,4-1.06C89.11,100.21,89.78,100.28,91.74,100.28Z"/><path class="cls-17" d="M64.73,96.38c-2.44-.63-5.82-.56-5.86-4.27,0-1.92,1.73-4,4-3.5,2.92.7,6.65,1.57,7,5.21C70.07,96.9,66.9,96.08,64.73,96.38Z"/><path class="cls-18" d="M135.3,99.1a3.61,3.61,0,0,1-3.08,2.18c-.05-1.33-.09-2.66-.13-4l-.08.07C133.68,96.86,134.83,97.33,135.3,99.1Z"/><path class="cls-19" d="M135.3,99.1,132,97.36A194.54,194.54,0,0,1,151.09,84c.68,3.32-2.39,4.38-3.85,6.4-1,1.32-2.48,2.37-2.08,4.28a1.36,1.36,0,0,0,1.57.94,4.71,4.71,0,0,0,4.06-3.25c1.87-4.8,5.44-7.59,10.21-9.06h0c1.37,2.4.76,4.55-.54,6.81C155.44,98.81,147.39,101.74,135.3,99.1Z"/><path class="cls-20" d="M161,83.27c-3.21,3.45-8.36,5.09-9.44,10.6-.36,1.8-2.45,2.58-4.18,3.19a3.11,3.11,0,0,1-3.64-.74c-1.06-1.22-.45-2.44.15-3.66,1.72-3.47,5.62-5.12,7.2-8.69l6.7-4.74,5.73-.72C163.92,81,161.52,81.6,161,83.27Z"/><path class="cls-21" d="M65.05,114.33l11.84-2.9v1.78c-1.7,2.08.48,5.19-1.88,7.1-1.53-.92-2.42-3.44-4.91-2-7.23,4.36-12.14,3.14-16.06-4l10,.06c.75,1-1.3,1.53-.34,2.47.21.21.65.15,1,0C66.1,116.22,64.37,115.09,65.05,114.33Z"/><path class="cls-22" d="M32,107.34c5.65,3,11.81,4.68,17.84,6.7-3.56,1.17-7,2.66-11,1.51C34.62,114.32,31.89,112.11,32,107.34Z"/><path class="cls-23" d="M70.1,118.32c.61-1.11,1.17-2.25,2.66-2.69L75,120.31Z"/><path class="cls-24" d="M131.07,111c9.7,2.41,19.3,1.59,28.86-.8,1.09-.39,1.32.11,1.11,1.07-3.94,7-13.13,11.48-21.06,10.23-1,1.3-2.5,2.3-3,4-2.28,2.24-3.75,5.31-6.88,6.69-.12.11-.23.29-.37.31-5.48.8-10.88,1.88-15.8,4.64-6.2,1.22-11.29-.36-14.82-5.87-.8-2.8.76-4.14,3-5.29C111.79,121.07,121.42,116,131.07,111Z"/><path class="cls-25" d="M113.9,137.17c4.22-5.51,10.3-4.88,16.17-4.95-1.89,3.48-5.75,5-8,8.08C119,140.17,116.41,138.72,113.9,137.17Z"/><path class="cls-26" d="M161,111.3l-1.11-1.07c5-2.75,10.49-4.52,15.13-7.92-1.45,5-5.5,6.88-10,7.58A11,11,0,0,0,161,111.3Z"/><path class="cls-27" d="M137,125.53c-.47-3.6-.21-4,3-4C141.18,124.53,138.84,124.86,137,125.53Z"/><path class="cls-28" d="M80,121.73c-.09-7.59,0-7.64,8.8-7.44,2.81.06,6.63-.09,7.67,2.11,1.22,2.6-1.35,5.59-3.32,7.77a60.87,60.87,0,0,1-7.35,6.62c-2.25,1.79-4.13,2-4.82-1.67C80.47,126.51,79.81,124,80,121.73Z"/><path class="cls-15" d="M191.1,61.39c-.36,3.07-.89,6-5,6-3.13,0-4.06-2-4-4.51.1-3.24,2-5.2,5.24-5.49C190.1,57.11,191.25,58.69,191.1,61.39Z"/><path class="cls-29" d="M42.7,107.46c-5.51-.51-11.16-1.12-13.8-7.45-1.59-3.81-.28-5.84,3.92-5.52a22.77,22.77,0,0,1,12.81,5c1.74,1.41,4.1,2.89,3.26,5.68C48,108.28,45.08,107.06,42.7,107.46Z"/><path class="cls-30" d="M57.36,110.31c-2.89,0-5.14-.9-5-3.83.18-3.41,3-3.38,5.53-3.25,2.25.11,5.19-.32,5,3.11S59.69,110,57.36,110.31Z"/><path class="cls-31" d="M65.05,114.33c.29,1.25,3.07,1,2,2.75-.76,1.25-2.56,1.39-4.11,1.24-1-.09-2.26-.32-2.23-1.48,0-2,2.6-1.08,3.32-2.47Z"/><path class="cls-29" d="M153.44,101.34c1.83,0,3.67-.1,5.49,0,1.44.11,3.35.17,3.62,1.91.24,1.59-1.32,2.73-2.61,3.35-5,2.42-10.28,2.16-15.54.86a2.68,2.68,0,0,1-2.19-2.44c-.11-1.65,1.1-2.17,2.39-2.74C147.46,101.05,150.47,101.37,153.44,101.34Z"/><path class="cls-29" d="M165.05,97.24c.25-4.06,4.44-9.21,7.32-8.81,2.46.35,3.71,2,3.68,4.46-.05,3.48-4.78,8.55-7.84,8.42C165.58,101.2,165,99.47,165.05,97.24Z"/><path class="cls-32" d="M121.61,128c-3.76-1.85-6.55-.19-9,3.14a3,3,0,0,1-4.46.5c-1.45-1.06-1.21-2.59-.69-4.08,1.39-4,4.73-5,8.32-4.66,2,.21,3.68.17,4.94-1.31,2-2.34,4.2-4.52,7.45-3.36,1.86.67,2.16,2.74,1.53,4.74C128.51,126.81,125.32,127.52,121.61,128Z"/></g></g></g></svg>